<svg width="20" height="20" viewBox="0 0 207.065 199.634" xmlns="http://www.w3.org/2000/svg"><path fill="#fff" d="M0 0h207.06v199.63H0z"/><path fill="#0052c2" d="M13.601 53.376h179.86v132.66H13.601zM37.127 14.694A12.007 12.007 0 1 1 25.12 26.7a12.013 12.013 0 0 1 12.007-12.006ZM169.95 14.694A12.007 12.007 0 1 1 157.943 26.7a12.015 12.015 0 0 1 12.007-12.007z"/><path d="M86.989 114.888c11.043 2.391 15 10.632 15 18.525 0 12.483-10.3 22.69-27.588 22.69-7.495 0-17.175-1.247-24.156-5.515l4.165-10.824c10.092 4.358 15.092 4.577 18.1 4.577 10.22 0 13.961-5.721 14.064-10.092.206-9.256-6.968-12.483-20.3-12.8v-9.886c13.743-.424 17.484-5.939 17.484-10.837 0-3.535-2.61-6.646-8.318-6.646-3.124 0-8.947.206-19.271 5.734l-4.05-10.516c8.433-4.808 17.278-7.1 23.719-7.1 16.147 0 23.011 8.33 23.011 17.291 0 4.679-2.79 11.866-11.866 15.092v.309ZM134.48 96.778l-14.57 1.35v-9.899l15.9-4.666h13.23v71.607h-14.56z" fill="#fff"/></svg>